<mxfile host="app.diagrams.net" modified="2023-02-13T12:36:31.079Z" agent="5.0 (Windows NT 10.0; Win64; x64) AppleWebKit/537.36 (KHTML, like Gecko) Chrome/97.0.4692.71 Safari/537.36" etag="sKK7bo8YejJqs8wTuA0o" version="20.8.20" type="github">
  <diagram name="第 1 页" id="XvNV9zE-3UiDrreIDt3a">
    <mxGraphModel dx="2261" dy="764" grid="1" gridSize="10" guides="1" tooltips="1" connect="1" arrows="1" fold="1" page="1" pageScale="1" pageWidth="827" pageHeight="1169" math="0" shadow="0">
      <root>
        <mxCell id="0" />
        <mxCell id="1" parent="0" />
        <mxCell id="YI6U0gxPhSx2EsZZrnos-40" style="edgeStyle=orthogonalEdgeStyle;orthogonalLoop=1;jettySize=auto;html=1;entryX=0;entryY=0.5;entryDx=0;entryDy=0;entryPerimeter=0;fontSize=24;curved=1;" edge="1" parent="1" source="YI6U0gxPhSx2EsZZrnos-34" target="YI6U0gxPhSx2EsZZrnos-39">
          <mxGeometry relative="1" as="geometry" />
        </mxCell>
        <mxCell id="YI6U0gxPhSx2EsZZrnos-34" value="" style="rounded=1;whiteSpace=wrap;html=1;shadow=1;glass=0;dashed=1;sketch=0;fontSize=18;fillColor=#dae8fc;gradientColor=#7ea6e0;strokeColor=#6c8ebf;" vertex="1" parent="1">
          <mxGeometry x="380" y="830" width="630" height="310" as="geometry" />
        </mxCell>
        <mxCell id="YI6U0gxPhSx2EsZZrnos-38" style="edgeStyle=orthogonalEdgeStyle;orthogonalLoop=1;jettySize=auto;html=1;fontSize=18;curved=1;" edge="1" parent="1" source="YI6U0gxPhSx2EsZZrnos-31" target="YI6U0gxPhSx2EsZZrnos-37">
          <mxGeometry relative="1" as="geometry" />
        </mxCell>
        <mxCell id="YI6U0gxPhSx2EsZZrnos-31" value="" style="rounded=1;whiteSpace=wrap;html=1;fontSize=18;dashed=1;fillColor=#d5e8d4;strokeColor=#82b366;shadow=1;glass=0;gradientColor=#97d077;" vertex="1" parent="1">
          <mxGeometry x="380" y="470" width="640" height="330" as="geometry" />
        </mxCell>
        <mxCell id="YI6U0gxPhSx2EsZZrnos-3" style="edgeStyle=orthogonalEdgeStyle;rounded=0;orthogonalLoop=1;jettySize=auto;html=1;entryX=0.5;entryY=0;entryDx=0;entryDy=0;fontSize=18;" edge="1" parent="1" source="YI6U0gxPhSx2EsZZrnos-1" target="YI6U0gxPhSx2EsZZrnos-2">
          <mxGeometry relative="1" as="geometry" />
        </mxCell>
        <mxCell id="YI6U0gxPhSx2EsZZrnos-1" value="&lt;font style=&quot;font-size: 18px;&quot;&gt;doGetBean&lt;/font&gt;" style="strokeWidth=2;html=1;shape=mxgraph.flowchart.start_1;whiteSpace=wrap;" vertex="1" parent="1">
          <mxGeometry x="364" y="140" width="100" height="70" as="geometry" />
        </mxCell>
        <mxCell id="YI6U0gxPhSx2EsZZrnos-6" style="edgeStyle=orthogonalEdgeStyle;rounded=0;orthogonalLoop=1;jettySize=auto;html=1;fontSize=18;" edge="1" parent="1" source="YI6U0gxPhSx2EsZZrnos-2" target="YI6U0gxPhSx2EsZZrnos-5">
          <mxGeometry relative="1" as="geometry" />
        </mxCell>
        <mxCell id="YI6U0gxPhSx2EsZZrnos-42" value="" style="edgeStyle=orthogonalEdgeStyle;curved=1;orthogonalLoop=1;jettySize=auto;html=1;fontSize=24;" edge="1" parent="1" source="YI6U0gxPhSx2EsZZrnos-2" target="YI6U0gxPhSx2EsZZrnos-41">
          <mxGeometry relative="1" as="geometry" />
        </mxCell>
        <mxCell id="YI6U0gxPhSx2EsZZrnos-2" value="Object sharedInstance = getSingleton(beanName)" style="rounded=1;whiteSpace=wrap;html=1;absoluteArcSize=1;arcSize=14;strokeWidth=2;fontSize=18;" vertex="1" parent="1">
          <mxGeometry x="209" y="250" width="410" height="50" as="geometry" />
        </mxCell>
        <mxCell id="YI6U0gxPhSx2EsZZrnos-8" style="edgeStyle=orthogonalEdgeStyle;rounded=0;orthogonalLoop=1;jettySize=auto;html=1;fontSize=18;" edge="1" parent="1" source="YI6U0gxPhSx2EsZZrnos-5" target="YI6U0gxPhSx2EsZZrnos-7">
          <mxGeometry relative="1" as="geometry" />
        </mxCell>
        <mxCell id="YI6U0gxPhSx2EsZZrnos-9" value="true" style="edgeLabel;html=1;align=center;verticalAlign=middle;resizable=0;points=[];fontSize=18;" vertex="1" connectable="0" parent="YI6U0gxPhSx2EsZZrnos-8">
          <mxGeometry x="0.0535" relative="1" as="geometry">
            <mxPoint y="-11" as="offset" />
          </mxGeometry>
        </mxCell>
        <mxCell id="YI6U0gxPhSx2EsZZrnos-11" style="edgeStyle=orthogonalEdgeStyle;rounded=0;orthogonalLoop=1;jettySize=auto;html=1;fontSize=18;exitX=1;exitY=0.5;exitDx=0;exitDy=0;exitPerimeter=0;" edge="1" parent="1" source="YI6U0gxPhSx2EsZZrnos-5" target="YI6U0gxPhSx2EsZZrnos-10">
          <mxGeometry relative="1" as="geometry" />
        </mxCell>
        <mxCell id="YI6U0gxPhSx2EsZZrnos-12" value="false" style="edgeLabel;html=1;align=center;verticalAlign=middle;resizable=0;points=[];fontSize=18;" vertex="1" connectable="0" parent="YI6U0gxPhSx2EsZZrnos-11">
          <mxGeometry x="-0.0476" relative="1" as="geometry">
            <mxPoint x="16" y="45" as="offset" />
          </mxGeometry>
        </mxCell>
        <mxCell id="YI6U0gxPhSx2EsZZrnos-5" value="sharedInstance != null" style="strokeWidth=2;html=1;shape=mxgraph.flowchart.decision;whiteSpace=wrap;fontSize=18;" vertex="1" parent="1">
          <mxGeometry x="309" y="340" width="210" height="110" as="geometry" />
        </mxCell>
        <mxCell id="YI6U0gxPhSx2EsZZrnos-7" value="return bean" style="strokeWidth=2;html=1;shape=mxgraph.flowchart.terminator;whiteSpace=wrap;fontSize=18;" vertex="1" parent="1">
          <mxGeometry x="60" y="680" width="100" height="60" as="geometry" />
        </mxCell>
        <mxCell id="YI6U0gxPhSx2EsZZrnos-14" style="edgeStyle=orthogonalEdgeStyle;rounded=0;orthogonalLoop=1;jettySize=auto;html=1;fontSize=18;" edge="1" parent="1" source="YI6U0gxPhSx2EsZZrnos-10" target="YI6U0gxPhSx2EsZZrnos-13">
          <mxGeometry relative="1" as="geometry" />
        </mxCell>
        <mxCell id="YI6U0gxPhSx2EsZZrnos-10" value="createBean" style="rounded=1;whiteSpace=wrap;html=1;absoluteArcSize=1;arcSize=14;strokeWidth=2;fontSize=18;" vertex="1" parent="1">
          <mxGeometry x="580" y="510" width="150" height="50" as="geometry" />
        </mxCell>
        <mxCell id="YI6U0gxPhSx2EsZZrnos-18" value="true" style="edgeStyle=orthogonalEdgeStyle;rounded=0;orthogonalLoop=1;jettySize=auto;html=1;fontSize=18;exitX=1;exitY=0.5;exitDx=0;exitDy=0;exitPerimeter=0;" edge="1" parent="1" source="YI6U0gxPhSx2EsZZrnos-13" target="YI6U0gxPhSx2EsZZrnos-17">
          <mxGeometry x="0.3361" relative="1" as="geometry">
            <mxPoint as="offset" />
          </mxGeometry>
        </mxCell>
        <mxCell id="YI6U0gxPhSx2EsZZrnos-24" style="edgeStyle=orthogonalEdgeStyle;rounded=0;orthogonalLoop=1;jettySize=auto;html=1;entryX=0.5;entryY=0;entryDx=0;entryDy=0;fontSize=18;" edge="1" parent="1" source="YI6U0gxPhSx2EsZZrnos-13" target="YI6U0gxPhSx2EsZZrnos-20">
          <mxGeometry relative="1" as="geometry" />
        </mxCell>
        <mxCell id="YI6U0gxPhSx2EsZZrnos-13" value="earlySingletonExposure" style="strokeWidth=2;html=1;shape=mxgraph.flowchart.decision;whiteSpace=wrap;fontSize=18;" vertex="1" parent="1">
          <mxGeometry x="537.5" y="600" width="235" height="110" as="geometry" />
        </mxCell>
        <mxCell id="YI6U0gxPhSx2EsZZrnos-17" value="addSingletonFactory&lt;br&gt;放入&amp;nbsp;singletonFactories 缓存" style="rounded=1;whiteSpace=wrap;html=1;absoluteArcSize=1;arcSize=14;strokeWidth=2;fontSize=18;" vertex="1" parent="1">
          <mxGeometry x="690" y="740" width="236" height="50" as="geometry" />
        </mxCell>
        <mxCell id="YI6U0gxPhSx2EsZZrnos-27" style="edgeStyle=orthogonalEdgeStyle;rounded=0;orthogonalLoop=1;jettySize=auto;html=1;fontSize=18;" edge="1" parent="1" source="YI6U0gxPhSx2EsZZrnos-20" target="YI6U0gxPhSx2EsZZrnos-26">
          <mxGeometry relative="1" as="geometry" />
        </mxCell>
        <mxCell id="YI6U0gxPhSx2EsZZrnos-20" value="" style="rounded=1;whiteSpace=wrap;html=1;absoluteArcSize=1;arcSize=14;strokeWidth=2;fontSize=18;" vertex="1" parent="1">
          <mxGeometry x="495" y="860" width="320" height="90" as="geometry" />
        </mxCell>
        <mxCell id="YI6U0gxPhSx2EsZZrnos-21" value="populateBean" style="text;html=1;strokeColor=none;fillColor=none;align=center;verticalAlign=middle;whiteSpace=wrap;rounded=0;fontSize=18;" vertex="1" parent="1">
          <mxGeometry x="495" y="860" width="150" height="30" as="geometry" />
        </mxCell>
        <mxCell id="YI6U0gxPhSx2EsZZrnos-53" value="&lt;b&gt;&lt;font style=&quot;font-size: 24px;&quot;&gt;懒加载&lt;/font&gt;&lt;/b&gt;" style="edgeStyle=orthogonalEdgeStyle;curved=1;orthogonalLoop=1;jettySize=auto;html=1;entryX=0.991;entryY=0.579;entryDx=0;entryDy=0;entryPerimeter=0;fontSize=18;" edge="1" parent="1" source="YI6U0gxPhSx2EsZZrnos-22" target="YI6U0gxPhSx2EsZZrnos-52">
          <mxGeometry relative="1" as="geometry" />
        </mxCell>
        <mxCell id="YI6U0gxPhSx2EsZZrnos-60" style="edgeStyle=orthogonalEdgeStyle;orthogonalLoop=1;jettySize=auto;html=1;entryX=0.5;entryY=0;entryDx=0;entryDy=0;entryPerimeter=0;strokeWidth=3;fontSize=18;rounded=0;" edge="1" parent="1" source="YI6U0gxPhSx2EsZZrnos-22" target="YI6U0gxPhSx2EsZZrnos-1">
          <mxGeometry relative="1" as="geometry">
            <Array as="points">
              <mxPoint x="990" y="915" />
              <mxPoint x="990" y="120" />
              <mxPoint x="414" y="120" />
            </Array>
          </mxGeometry>
        </mxCell>
        <mxCell id="YI6U0gxPhSx2EsZZrnos-61" value="&lt;b&gt;&lt;font style=&quot;font-size: 24px;&quot;&gt;积极加载&lt;/font&gt;&lt;/b&gt;" style="edgeLabel;html=1;align=center;verticalAlign=middle;resizable=0;points=[];fontSize=18;" vertex="1" connectable="0" parent="YI6U0gxPhSx2EsZZrnos-60">
          <mxGeometry x="-0.8663" y="-2" relative="1" as="geometry">
            <mxPoint as="offset" />
          </mxGeometry>
        </mxCell>
        <mxCell id="YI6U0gxPhSx2EsZZrnos-22" value="resolveDependency 解析依赖项" style="rounded=1;whiteSpace=wrap;html=1;absoluteArcSize=1;arcSize=14;strokeWidth=2;fontSize=18;fillColor=#d5e8d4;strokeColor=#82b366;" vertex="1" parent="1">
          <mxGeometry x="532.5" y="900" width="270" height="30" as="geometry" />
        </mxCell>
        <mxCell id="YI6U0gxPhSx2EsZZrnos-29" style="edgeStyle=orthogonalEdgeStyle;rounded=0;orthogonalLoop=1;jettySize=auto;html=1;fontSize=18;" edge="1" parent="1" source="YI6U0gxPhSx2EsZZrnos-26" target="YI6U0gxPhSx2EsZZrnos-28">
          <mxGeometry relative="1" as="geometry" />
        </mxCell>
        <mxCell id="YI6U0gxPhSx2EsZZrnos-26" value="initializeBean" style="rounded=1;whiteSpace=wrap;html=1;absoluteArcSize=1;arcSize=14;strokeWidth=2;fontSize=18;" vertex="1" parent="1">
          <mxGeometry x="545" y="980" width="220" height="50" as="geometry" />
        </mxCell>
        <mxCell id="YI6U0gxPhSx2EsZZrnos-30" style="edgeStyle=orthogonalEdgeStyle;rounded=0;orthogonalLoop=1;jettySize=auto;html=1;entryX=0.5;entryY=1;entryDx=0;entryDy=0;entryPerimeter=0;fontSize=18;" edge="1" parent="1" source="YI6U0gxPhSx2EsZZrnos-28" target="YI6U0gxPhSx2EsZZrnos-7">
          <mxGeometry relative="1" as="geometry" />
        </mxCell>
        <mxCell id="YI6U0gxPhSx2EsZZrnos-28" value="registerDisposableBeanIfNecessary" style="rounded=1;whiteSpace=wrap;html=1;absoluteArcSize=1;arcSize=14;strokeWidth=2;fontSize=18;" vertex="1" parent="1">
          <mxGeometry x="497.5" y="1060" width="315" height="50" as="geometry" />
        </mxCell>
        <mxCell id="YI6U0gxPhSx2EsZZrnos-37" value="&lt;font style=&quot;font-size: 24px;&quot;&gt;Bean 的创建过程，此时 Bean 还没有完成完整的初始化过程&lt;/font&gt;" style="shape=tape;whiteSpace=wrap;html=1;strokeWidth=2;size=0.19;rounded=1;shadow=1;glass=0;sketch=0;fontSize=18;" vertex="1" parent="1">
          <mxGeometry x="1090" y="580" width="189" height="190" as="geometry" />
        </mxCell>
        <mxCell id="YI6U0gxPhSx2EsZZrnos-39" value="Bean 的初始化过程" style="shape=tape;whiteSpace=wrap;html=1;strokeWidth=2;size=0.19;rounded=1;shadow=1;glass=0;sketch=0;fontSize=24;" vertex="1" parent="1">
          <mxGeometry x="1090" y="915" width="130" height="85" as="geometry" />
        </mxCell>
        <mxCell id="YI6U0gxPhSx2EsZZrnos-47" style="edgeStyle=orthogonalEdgeStyle;curved=1;orthogonalLoop=1;jettySize=auto;html=1;fontSize=18;" edge="1" parent="1" source="YI6U0gxPhSx2EsZZrnos-41" target="YI6U0gxPhSx2EsZZrnos-46">
          <mxGeometry relative="1" as="geometry" />
        </mxCell>
        <mxCell id="YI6U0gxPhSx2EsZZrnos-41" value="" style="whiteSpace=wrap;html=1;fontSize=18;rounded=1;arcSize=14;strokeWidth=2;fillColor=#cdeb8b;strokeColor=#36393d;" vertex="1" parent="1">
          <mxGeometry x="673" y="170" width="270" height="180" as="geometry" />
        </mxCell>
        <mxCell id="YI6U0gxPhSx2EsZZrnos-43" value="&lt;font style=&quot;font-size: 18px;&quot;&gt;1 singletonObjects&lt;/font&gt;" style="rounded=1;whiteSpace=wrap;html=1;shadow=1;glass=0;sketch=0;fontSize=24;" vertex="1" parent="1">
          <mxGeometry x="728" y="180" width="160" height="40" as="geometry" />
        </mxCell>
        <mxCell id="YI6U0gxPhSx2EsZZrnos-44" value="&lt;font style=&quot;font-size: 18px;&quot;&gt;2 earlySingletonObjects&lt;/font&gt;" style="rounded=1;whiteSpace=wrap;html=1;shadow=1;glass=0;sketch=0;fontSize=24;" vertex="1" parent="1">
          <mxGeometry x="717" y="230" width="196" height="45" as="geometry" />
        </mxCell>
        <mxCell id="YI6U0gxPhSx2EsZZrnos-51" value="" style="edgeStyle=orthogonalEdgeStyle;curved=1;orthogonalLoop=1;jettySize=auto;html=1;fontSize=18;" edge="1" parent="1" source="YI6U0gxPhSx2EsZZrnos-45" target="YI6U0gxPhSx2EsZZrnos-50">
          <mxGeometry relative="1" as="geometry" />
        </mxCell>
        <mxCell id="YI6U0gxPhSx2EsZZrnos-45" value="&lt;font style=&quot;font-size: 18px;&quot;&gt;3 singletonFactories&lt;/font&gt;" style="rounded=1;whiteSpace=wrap;html=1;shadow=1;glass=0;sketch=0;fontSize=24;" vertex="1" parent="1">
          <mxGeometry x="717" y="290" width="182" height="45" as="geometry" />
        </mxCell>
        <mxCell id="YI6U0gxPhSx2EsZZrnos-46" value="从三种缓存中依次寻找 Bean 实例" style="shape=tape;whiteSpace=wrap;html=1;strokeWidth=2;size=0.19;rounded=1;shadow=1;glass=0;sketch=0;fontSize=18;" vertex="1" parent="1">
          <mxGeometry x="1040" y="180" width="150" height="90" as="geometry" />
        </mxCell>
        <mxCell id="YI6U0gxPhSx2EsZZrnos-50" value="&lt;font style=&quot;font-size: 18px;&quot;&gt;getEarlyBeanReference&lt;/font&gt;" style="whiteSpace=wrap;html=1;fontSize=24;rounded=1;shadow=1;glass=0;sketch=0;" vertex="1" parent="1">
          <mxGeometry x="1021" y="283.75" width="220" height="57.5" as="geometry" />
        </mxCell>
        <mxCell id="YI6U0gxPhSx2EsZZrnos-54" style="edgeStyle=orthogonalEdgeStyle;orthogonalLoop=1;jettySize=auto;html=1;entryX=1;entryY=0.5;entryDx=0;entryDy=0;entryPerimeter=0;fontSize=18;rounded=0;" edge="1" parent="1" source="YI6U0gxPhSx2EsZZrnos-52" target="YI6U0gxPhSx2EsZZrnos-7">
          <mxGeometry relative="1" as="geometry" />
        </mxCell>
        <mxCell id="YI6U0gxPhSx2EsZZrnos-59" style="edgeStyle=orthogonalEdgeStyle;orthogonalLoop=1;jettySize=auto;html=1;entryX=0.75;entryY=0;entryDx=0;entryDy=0;entryPerimeter=0;fontSize=18;curved=1;exitX=0.5;exitY=1;exitDx=0;exitDy=0;" edge="1" parent="1" source="YI6U0gxPhSx2EsZZrnos-52" target="YI6U0gxPhSx2EsZZrnos-58">
          <mxGeometry relative="1" as="geometry" />
        </mxCell>
        <mxCell id="YI6U0gxPhSx2EsZZrnos-52" value="" style="rounded=1;whiteSpace=wrap;html=1;absoluteArcSize=1;arcSize=14;strokeWidth=2;shadow=1;glass=0;sketch=0;fontSize=18;fillColor=#cdeb8b;strokeColor=#36393d;" vertex="1" parent="1">
          <mxGeometry x="200" y="860" width="130" height="95" as="geometry" />
        </mxCell>
        <mxCell id="YI6U0gxPhSx2EsZZrnos-55" value="创建代理对象" style="text;html=1;strokeColor=none;fillColor=none;align=center;verticalAlign=middle;whiteSpace=wrap;rounded=0;fontSize=18;" vertex="1" parent="1">
          <mxGeometry x="209" y="870" width="111" height="30" as="geometry" />
        </mxCell>
        <mxCell id="YI6U0gxPhSx2EsZZrnos-57" style="edgeStyle=orthogonalEdgeStyle;rounded=0;orthogonalLoop=1;jettySize=auto;html=1;entryX=0.5;entryY=0;entryDx=0;entryDy=0;entryPerimeter=0;fontSize=18;strokeWidth=3;" edge="1" parent="1" source="YI6U0gxPhSx2EsZZrnos-56" target="YI6U0gxPhSx2EsZZrnos-1">
          <mxGeometry relative="1" as="geometry">
            <Array as="points">
              <mxPoint x="40" y="925" />
              <mxPoint x="40" y="120" />
              <mxPoint x="414" y="120" />
            </Array>
          </mxGeometry>
        </mxCell>
        <mxCell id="YI6U0gxPhSx2EsZZrnos-56" value="getObject" style="rounded=1;whiteSpace=wrap;html=1;absoluteArcSize=1;arcSize=14;strokeWidth=2;shadow=1;glass=0;sketch=0;fontSize=18;" vertex="1" parent="1">
          <mxGeometry x="210" y="910" width="110" height="30" as="geometry" />
        </mxCell>
        <mxCell id="YI6U0gxPhSx2EsZZrnos-58" value="&lt;font style=&quot;font-size: 24px;&quot;&gt;在解析依赖项时返回一个代理对象，该代理对象在使用时再去 BeanFactory 中寻找真正的实例，解决的思路就是延迟加载思想&lt;/font&gt;" style="shape=tape;whiteSpace=wrap;html=1;strokeWidth=2;size=0.09523809523809523;rounded=1;shadow=1;glass=0;sketch=0;fontSize=18;" vertex="1" parent="1">
          <mxGeometry x="-70" y="1110" width="360" height="190" as="geometry" />
        </mxCell>
      </root>
    </mxGraphModel>
  </diagram>
</mxfile>
